<?xml version="1.0" encoding="UTF-8" standalone="no"?>
<!DOCTYPE svg PUBLIC "-//W3C//DTD SVG 1.1//EN" "http://www.w3.org/Graphics/SVG/1.1/DTD/svg11.dtd">
<svg width="100%" height="100%" viewBox="0 0 200 50" version="1.1" xmlns="http://www.w3.org/2000/svg" xmlns:xlink="http://www.w3.org/1999/xlink" xml:space="preserve" xmlns:serif="http://www.serif.com/" style="fill-rule:evenodd;clip-rule:evenodd;stroke-linejoin:round;stroke-miterlimit:2;">
    <g transform="matrix(0.0409756,0,0,0.0409756,100,25)">
        <g transform="matrix(1,0,0,1,-879.167,-341.667)">
            <g transform="matrix(0.416667,0,0,-0.416667,0,683.333)">
                <path d="M2701,1609C2580,1585 2469,1537 2373,1466C2275,1394 2259,1338 2322,1285C2373,1242 2421,1250 2507,1314C2589,1376 2659,1405 2763,1421C2909,1444 3062,1411 3173,1333C3272,1264 3297,1255 3345,1271C3397,1289 3426,1341 3409,1388C3399,1418 3336,1472 3259,1518C3204,1551 3093,1590 3012,1606C2932,1621 2771,1623 2701,1609Z" style="fill:white;fill-rule:nonzero;"/>
                <path d="M3890,1310C3878,1302 3874,1266 3872,1110C3870,1006 3867,920 3864,920C3861,920 3847,928 3833,938C3812,951 3784,955 3705,955C3611,955 3600,953 3537,922C3455,882 3409,825 3380,732C3363,678 3360,639 3360,480C3360,256 3374,192 3440,118C3500,50 3563,25 3680,25C3766,25 3780,28 3821,52L3868,80L3884,55C3900,31 3904,30 4015,30C4105,30 4132,33 4144,46C4158,60 4160,130 4160,671C4160,1073 4156,1288 4150,1301C4140,1318 4128,1320 4022,1320C3958,1320 3898,1315 3890,1310ZM3839,684L3870,658L3870,498C3870,408 3866,330 3860,319C3834,272 3748,256 3693,290C3647,317 3638,360 3642,518L3645,652L3678,681C3722,721 3794,722 3839,684Z" style="fill:white;fill-rule:nonzero;"/>
                <path d="M2755,1269C2688,1255 2592,1208 2553,1169C2509,1127 2508,1085 2550,1045C2592,1004 2651,1005 2711,1048C2797,1109 2898,1110 2989,1049C3065,999 3160,1020 3175,1090C3184,1131 3162,1162 3096,1207C3010,1266 2866,1292 2755,1269Z" style="fill:white;fill-rule:nonzero;"/>
                <path d="M2774,940C2643,921 2532,835 2490,722C2470,670 2469,650 2472,460C2475,259 2476,254 2502,204C2536,138 2606,77 2679,48C2725,30 2755,26 2845,26C2987,26 3048,48 3132,129C3221,216 3216,228 3053,323C3047,327 3022,311 2997,286C2894,186 2782,188 2713,290C2683,334 2681,414 2709,430C2721,436 2821,440 2964,440C3245,440 3224,428 3218,589C3213,711 3196,761 3134,830C3056,916 2910,961 2774,940ZM2931,749C2996,680 2949,571 2854,570C2776,570 2724,643 2753,713C2773,759 2805,780 2858,780C2894,780 2907,775 2931,749Z" style="fill:white;fill-rule:nonzero;"/>
                <path d="M1003,909C924,884 843,812 809,738C787,689 785,670 782,487C778,247 787,207 861,125C925,56 989,28 1097,22C1219,15 1305,44 1376,115C1436,175 1437,188 1384,220C1339,246 1326,245 1306,215C1286,184 1216,143 1167,135C1073,117 979,161 935,241C912,283 910,299 912,367L915,445L1180,448C1485,451 1470,445 1470,546C1470,735 1389,865 1242,910C1162,935 1083,935 1003,909ZM1188,808C1255,791 1314,729 1330,659C1337,629 1340,594 1339,580L1335,555L915,555L912,607C907,692 964,776 1046,805C1095,823 1128,823 1188,808Z" style="fill:white;fill-rule:nonzero;"/>
                <path d="M1833,911C1730,873 1661,802 1630,702C1613,649 1610,609 1610,466C1610,265 1620,217 1680,141C1738,68 1822,29 1939,22C2071,15 2152,41 2231,119C2263,150 2290,184 2290,193C2290,209 2205,279 2184,280C2179,280 2158,264 2139,244C2087,190 2035,167 1965,166C1851,166 1789,226 1776,346C1765,443 1756,440 2049,440C2257,440 2300,442 2310,455C2319,465 2321,502 2318,582C2315,674 2310,704 2291,742C2259,808 2198,867 2132,898C2054,934 1911,940 1833,911ZM2096,762C2237,690 2161,550 1980,550C1878,550 1809,586 1794,647C1766,755 1963,830 2096,762Z" style="fill:white;fill-rule:nonzero;"/>
                <path d="M243,899C90,840 42,668 148,557C177,526 279,471 345,450C424,425 521,368 546,331C575,287 578,229 551,180C506,95 348,67 241,125C211,141 174,171 157,192C128,228 127,229 99,214C63,196 63,183 99,132C120,104 150,81 197,58C260,27 271,25 365,25C449,25 474,29 518,49C622,96 677,202 651,306C627,402 572,448 412,511C226,583 180,621 180,706C180,755 206,793 258,819C355,868 453,851 572,767C587,757 594,760 617,782C640,806 642,811 629,826C561,908 364,945 243,899Z" style="fill:white;fill-rule:nonzero;"/>
            </g>
        </g>
    </g>
</svg>
