<svg width="500" height="500" viewBox="0 0 500 500" fill="none" xmlns="http://www.w3.org/2000/svg">
<g clip-path="url(#clip0_2698_70)">
<rect width="500" height="500" fill="#111111"/>
<path d="M225.952 247.224C225.952 247.224 249.615 245.425 249.615 217.086C249.615 188.77 233.566 174.812 209.036 174.812L125.001 174.679V331.161H210.99C210.99 331.161 253.985 332.523 253.985 284.217C253.985 284.217 257.143 247.224 225.952 247.224ZM156.27 198.151H199.264C199.264 198.151 213.976 198.394 213.976 217.485C213.976 237.272 199.264 237.272 199.264 237.272H156.27V198.151ZM203.173 307.689H156.27V260.744H203.173C203.173 260.744 226.624 260.987 226.624 284.217C226.624 307.446 206.55 307.689 203.173 307.689Z" fill="white"/>
<path d="M320.433 213.803C261.702 213.803 261.804 272.484 261.804 272.484C261.804 272.484 257.895 331.165 320.433 331.165C320.433 331.165 375.153 331.165 375.153 284.22H343.884C343.884 284.22 343.884 307.692 320.433 307.692C320.433 307.692 296.981 307.692 296.981 276.396C296.981 276.396 359.519 276.396 375.153 276.396C375.153 260.748 375.153 213.803 320.433 213.803ZM296.981 260.748C296.981 260.748 296.465 237.275 320.433 237.275C344.392 237.275 343.884 260.748 343.884 260.748H296.981Z" fill="white"/>
<path d="M351.704 190.328H289.166V205.976H351.704V190.328Z" fill="white"/>
</g>
<defs>
<clipPath id="clip0_2698_70">
<rect width="500" height="500" rx="125" fill="white"/>
</clipPath>
</defs>
</svg>
