<svg width="500" height="500" viewBox="0 0 500 500" fill="none" xmlns="http://www.w3.org/2000/svg">
<rect width="500" height="500" rx="125" fill="black"/>
<g clip-path="url(#clip0_2698_101)">
<path d="M390 205.76C388.88 198.48 380.76 194.56 375.16 190.92C365.08 184.2 355.28 177.76 345.2 171.04C321.4 155.08 297.32 139.12 273.52 123.16C267.92 119.52 262.32 115.6 256.72 111.96C252.8 109.16 247.48 109.16 243.28 111.96C227.32 122.6 211.08 133.52 195.12 144.16L124.56 191.2C118.4 195.12 110.28 199.04 110 207.44C109.72 216.68 110 226.2 110 235.44V280.24C110 288.36 108.32 297.88 115.88 302.92C133.8 315.24 152 327 170.2 339.04C192.6 353.88 215 369 237.4 383.84C243.56 388.04 249.72 392.52 257.28 387.48C263.72 383.28 269.88 379.08 276.32 374.88C301.24 358.36 326.16 341.56 351.08 325.04L378.8 306.56C380.48 305.44 382.44 304.32 384.12 302.92C388.04 300.12 389.72 296.2 389.72 291.44V214.44C390 211.36 390.28 208.56 390 205.76C390 206.32 390 205.48 390 205.76ZM262.04 144.44L356.4 207.44L314.4 235.72L262.04 200.72V144.44ZM237.96 144.44V200.44L185.88 235.44L143.6 207.44L237.96 144.44ZM134.08 229.84L164.04 250L134.08 270.16V229.84ZM237.96 355.56L143.6 292.56L185.6 264.28L237.68 299.28V355.56H237.96ZM250 278.56L207.44 250L250 221.44L292.56 250L250 278.56ZM262.04 355.56V299.56L314.12 264.56L356.12 292.84L262.04 355.56ZM365.92 270.16L335.96 250L366.2 229.84L365.92 270.16Z" fill="#FAFAFA"/>
</g>
<defs>
<clipPath id="clip0_2698_101">
<rect width="280" height="280" fill="white" transform="translate(110 110)"/>
</clipPath>
</defs>
</svg>
