<svg width="500" height="500" viewBox="0 0 500 500" fill="none" xmlns="http://www.w3.org/2000/svg">
<g clip-path="url(#clip0_2698_119)">
<rect width="500" height="500" fill="#5865F2"/>
<path d="M341.162 168.052C370.624 211.676 385.174 260.882 379.735 317.53C379.712 317.77 379.588 317.99 379.392 318.135C357.081 334.633 335.465 344.646 314.152 351.286C313.986 351.337 313.809 351.334 313.644 351.278C313.48 351.222 313.337 351.116 313.236 350.974C308.312 344.075 303.838 336.801 299.918 329.162C299.693 328.712 299.899 328.171 300.362 327.993C307.467 325.297 314.224 322.066 320.723 318.24C321.235 317.938 321.267 317.199 320.794 316.844C319.415 315.813 318.049 314.729 316.741 313.646C316.497 313.445 316.167 313.406 315.89 313.54C273.698 333.162 227.478 333.162 184.787 313.54C184.51 313.416 184.181 313.458 183.942 313.655C182.638 314.739 181.269 315.813 179.902 316.844C179.429 317.199 179.469 317.938 179.984 318.24C186.483 321.993 193.239 325.297 200.335 328.006C200.795 328.184 201.013 328.712 200.785 329.162C196.95 336.811 192.476 344.085 187.461 350.984C187.242 351.263 186.884 351.391 186.545 351.286C165.333 344.646 143.716 334.633 121.406 318.135C121.22 317.99 121.086 317.76 121.066 317.521C116.521 268.521 125.785 218.907 159.603 168.042C159.685 167.907 159.809 167.802 159.952 167.74C176.592 160.049 194.42 154.39 213.052 151.159C213.391 151.106 213.73 151.264 213.907 151.566C216.209 155.671 218.84 160.935 220.621 165.237C240.261 162.216 260.208 162.216 280.259 165.237C282.039 161.027 284.579 155.671 286.872 151.566C286.953 151.416 287.08 151.296 287.233 151.223C287.387 151.15 287.559 151.127 287.726 151.159C306.368 154.4 324.196 160.058 340.823 167.74C340.969 167.802 341.09 167.907 341.162 168.052V168.052ZM230.605 261.217C230.811 246.732 220.324 234.745 207.16 234.745C194.103 234.745 183.717 246.627 183.717 261.217C183.717 275.805 194.309 287.686 207.16 287.686C220.22 287.686 230.605 275.805 230.605 261.217V261.217ZM317.286 261.217C317.491 246.732 307.004 234.745 293.843 234.745C280.784 234.745 270.398 246.627 270.398 261.217C270.398 275.805 280.989 287.686 293.843 287.686C307.004 287.686 317.286 275.805 317.286 261.217V261.217Z" fill="white"/>
</g>
<defs>
<clipPath id="clip0_2698_119">
<rect width="500" height="500" rx="125" fill="white"/>
</clipPath>
</defs>
</svg>
