<svg width="500" height="500" viewBox="0 0 500 500" fill="none" xmlns="http://www.w3.org/2000/svg">
<g clip-path="url(#clip0_2698_53)">
<rect y="0.397461" width="500" height="500" fill="#E74D89"/>
<path d="M251.196 388.113C175.934 388.113 114.677 326.856 114.677 251.594C114.677 176.331 175.934 115.074 251.196 115.074C326.458 115.074 387.716 176.331 387.716 251.594C387.716 326.856 326.458 388.113 251.196 388.113ZM251.196 137.093C188.045 137.093 136.696 188.442 136.696 251.594C136.696 314.745 188.045 366.094 251.196 366.094C314.348 366.094 365.697 314.745 365.697 251.594C365.697 188.442 314.348 137.093 251.196 137.093Z" fill="white"/>
<path d="M211.567 238.162C185.76 238.162 157.84 234.33 128.07 226.58C122.168 225.038 118.645 219.049 120.187 213.148C121.728 207.247 127.717 203.724 133.618 205.265C223.81 228.693 294.404 213.852 337.738 162.415C341.657 157.791 348.615 157.175 353.239 161.094C357.907 165.014 358.48 171.972 354.56 176.596C320.166 217.42 271.548 238.162 211.567 238.162Z" fill="white"/>
<path d="M156.524 344.998C153.969 344.998 151.459 344.117 149.389 342.355C144.765 338.392 144.237 331.434 148.156 326.81C212.541 251.548 295.862 233.668 376.761 277.839C382.09 280.745 384.071 287.439 381.165 292.768C378.258 298.096 371.564 300.078 366.236 297.172C269.086 244.193 198.404 301.972 164.891 341.166C162.733 343.676 159.65 344.998 156.524 344.998Z" fill="white"/>
<path d="M287.264 382.833C286.868 382.833 286.471 382.833 286.075 382.789C280.042 382.128 275.682 376.712 276.343 370.634C284.93 291.893 264.672 212.492 216.186 134.543C212.971 129.391 214.556 122.609 219.709 119.394C224.861 116.179 231.643 117.764 234.858 122.917C286.031 205.137 307.346 289.295 298.23 373.056C297.569 378.693 292.813 382.833 287.264 382.833Z" fill="white"/>
</g>
<defs>
<clipPath id="clip0_2698_53">
<rect width="500" height="500" rx="125" fill="white"/>
</clipPath>
</defs>
</svg>
