<svg width="500" height="500" viewBox="0 0 500 500" fill="none" xmlns="http://www.w3.org/2000/svg">
<g clip-path="url(#clip0_2697_8)">
<rect width="500" height="500" fill="#1E1E1E"/>
<g clip-path="url(#clip1_2697_8)">
<path d="M250 252.778C250 238.78 255.561 225.356 265.458 215.458C275.356 205.561 288.78 200 302.778 200C316.775 200 330.2 205.561 340.097 215.458C349.995 225.356 355.556 238.78 355.556 252.778C355.556 266.775 349.995 280.2 340.097 290.097C330.2 299.995 316.775 305.556 302.778 305.556C288.78 305.556 275.356 299.995 265.458 290.097C255.561 280.2 250 266.775 250 252.778V252.778Z" fill="#1ABCFE"/>
<path d="M144.444 358.333C144.444 344.336 150.005 330.912 159.903 321.014C169.8 311.116 183.225 305.556 197.222 305.556H250V358.333C250 372.331 244.439 385.755 234.542 395.653C224.644 405.551 211.22 411.111 197.222 411.111C183.225 411.111 169.8 405.551 159.903 395.653C150.005 385.755 144.444 372.331 144.444 358.333V358.333Z" fill="#0ACF83"/>
<path d="M250 94.4443V200H302.778C316.775 200 330.2 194.439 340.097 184.542C349.995 174.644 355.556 161.22 355.556 147.222C355.556 133.225 349.995 119.8 340.097 109.903C330.2 100.005 316.775 94.4443 302.778 94.4443H250Z" fill="#FF7262"/>
<path d="M144.444 147.222C144.444 161.22 150.005 174.644 159.903 184.542C169.8 194.439 183.225 200 197.222 200H250V94.4443H197.222C183.225 94.4443 169.8 100.005 159.903 109.903C150.005 119.8 144.444 133.225 144.444 147.222V147.222Z" fill="#F24E1E"/>
<path d="M144.444 252.778C144.444 266.775 150.005 280.2 159.903 290.097C169.8 299.995 183.225 305.556 197.222 305.556H250V200H197.222C183.225 200 169.8 205.561 159.903 215.458C150.005 225.356 144.444 238.78 144.444 252.778V252.778Z" fill="#A259FF"/>
</g>
</g>
<defs>
<clipPath id="clip0_2697_8">
<rect width="500" height="500" rx="125" fill="white"/>
</clipPath>
<clipPath id="clip1_2697_8">
<rect width="211.111" height="316.667" fill="white" transform="translate(144.444 94.4443)"/>
</clipPath>
</defs>
</svg>
