<svg width="500" height="500" viewBox="0 0 500 500" fill="none" xmlns="http://www.w3.org/2000/svg">
<g clip-path="url(#clip0_2698_41)">
<rect width="500" height="500" fill="#1B1F23"/>
<path fill-rule="evenodd" clip-rule="evenodd" d="M249.748 114.677C172.104 114.677 109.216 177.315 109.216 254.65C109.216 316.588 149.443 368.903 205.304 387.449C212.331 388.674 214.966 384.475 214.966 380.8C214.966 377.476 214.79 366.453 214.79 354.73C179.482 361.204 170.347 346.157 167.537 338.283C165.956 334.259 159.105 321.837 153.132 318.512C148.213 315.888 141.187 309.414 152.956 309.239C164.023 309.064 171.928 319.387 174.563 323.586C187.211 344.757 207.412 338.808 215.493 335.134C216.723 326.036 220.412 319.912 224.452 316.413C193.184 312.913 160.51 300.841 160.51 247.301C160.51 232.079 165.956 219.481 174.914 209.683C173.509 206.184 168.591 191.837 176.32 172.591C176.32 172.591 188.089 168.916 214.966 186.938C226.209 183.788 238.154 182.214 250.099 182.214C262.044 182.214 273.989 183.788 285.232 186.938C312.109 168.741 323.878 172.591 323.878 172.591C331.607 191.837 326.689 206.184 325.284 209.683C334.242 219.481 339.688 231.904 339.688 247.301C339.688 301.016 306.839 312.913 275.57 316.413C280.665 320.787 285.056 329.185 285.056 342.308C285.056 361.029 284.881 376.076 284.881 380.8C284.881 384.475 287.516 388.849 294.542 387.449C350.052 368.903 390.28 316.413 390.28 254.65C390.28 177.315 327.392 114.677 249.748 114.677Z" fill="white"/>
</g>
<defs>
<clipPath id="clip0_2698_41">
<rect width="500" height="500" rx="125" fill="white"/>
</clipPath>
</defs>
</svg>
