<svg width="500" height="500" viewBox="0 0 500 500" fill="none" xmlns="http://www.w3.org/2000/svg">
<g clip-path="url(#clip0_2698_211)">
<rect width="500" height="500" fill="black"/>
<path d="M267.999 256.682C267.999 299.49 232.714 334.251 189.002 334.251C145.29 334.251 110.005 299.49 110.005 256.682C110.005 213.873 145.29 179.113 189.002 179.113C232.714 179.113 267.999 213.873 267.999 256.682ZM354.544 256.682C354.544 296.922 336.814 329.627 315.046 329.627C293.278 329.627 275.547 296.922 275.547 256.682C275.547 216.442 293.278 183.736 315.046 183.736C336.814 183.736 354.544 216.271 354.544 256.682ZM390.005 256.682C390.005 292.812 383.861 322.093 376.137 322.093C368.413 322.093 362.268 292.812 362.268 256.682C362.268 220.551 368.413 191.27 376.137 191.27C383.861 191.27 390.005 220.551 390.005 256.682Z" fill="white"/>
</g>
<defs>
<clipPath id="clip0_2698_211">
<rect width="500" height="500" rx="125" fill="white"/>
</clipPath>
</defs>
</svg>
