<svg width="500" height="500" viewBox="0 0 500 500" fill="none" xmlns="http://www.w3.org/2000/svg">
<g clip-path="url(#clip0_2698_125)">
<rect width="500" height="500" fill="#10BC4C"/>
<path d="M375.151 125.534H125.001V375.907H375.151V125.534Z" fill="#10BC4C"/>
<path fill-rule="evenodd" clip-rule="evenodd" d="M250.076 125.534C181.285 125.534 125.001 181.868 125.001 250.72C125.001 319.573 181.285 375.907 250.076 375.907C318.867 375.907 375.151 319.573 375.151 250.72C375.151 181.868 319.493 125.534 250.076 125.534ZM307.61 306.428C305.109 310.184 300.731 311.436 296.979 308.932C267.586 290.78 230.689 287.024 186.913 297.039C182.535 298.291 178.783 295.161 177.532 291.406C176.282 287.024 179.409 283.269 183.161 282.017C230.689 271.376 271.964 275.758 304.484 295.787C308.861 297.665 309.487 302.673 307.61 306.428ZM322.619 272.002C319.493 276.384 313.864 278.261 309.487 275.132C275.716 254.476 224.436 248.217 185.037 260.735C180.034 261.987 174.406 259.483 173.155 254.476C171.904 249.468 174.406 243.835 179.409 242.583C225.061 228.813 281.345 235.698 320.118 259.483C323.87 261.361 325.746 267.62 322.619 272.002ZM323.87 236.95C283.846 213.164 216.931 210.661 178.783 222.553C172.529 224.431 166.276 220.676 164.4 215.042C162.523 208.783 166.276 202.524 171.904 200.646C216.306 187.501 289.475 190.005 335.752 217.546C341.381 220.676 343.257 228.187 340.13 233.82C337.003 238.202 329.499 240.08 323.87 236.95Z" fill="white"/>
</g>
<defs>
<clipPath id="clip0_2698_125">
<rect width="500" height="500" rx="125" fill="white"/>
</clipPath>
</defs>
</svg>
