<svg width="500" height="500" viewBox="0 0 500 500" fill="none" xmlns="http://www.w3.org/2000/svg">
<g clip-path="url(#clip0_2698_85)">
<rect width="500" height="500" fill="#F48023"/>
<path d="M323.396 357.614V290.579H345.625V379.862H144.988V290.579H167.217V357.614H323.396Z" fill="white"/>
<path d="M191.751 284.225L300.874 307.052L305.493 285.092L196.37 262.265L191.751 284.225V284.225ZM206.185 232.215L307.226 279.313L316.464 259.087L215.423 211.7L206.185 232.215ZM234.188 182.517L319.928 253.886L334.073 236.838L248.334 165.47L234.188 182.517V182.517ZM289.616 129.641L271.717 142.932L338.115 232.504L356.014 219.213L289.616 129.641V129.641ZM189.442 335.079H300.874V312.83H189.442V335.079Z" fill="white"/>
</g>
<defs>
<clipPath id="clip0_2698_85">
<rect width="500" height="500" rx="125" fill="white"/>
</clipPath>
</defs>
</svg>
