<svg width="500" height="500" viewBox="0 0 500 500" fill="none" xmlns="http://www.w3.org/2000/svg">
<rect width="500" height="500" rx="125" fill="#17181C"/>
<path fill-rule="evenodd" clip-rule="evenodd" d="M294.386 101.696C296.908 104.827 298.194 109.051 300.766 117.501L356.954 302.078C335.849 291.126 313.196 283.457 289.779 279.336L253.195 155.707C252.903 154.721 252.3 153.855 251.476 153.241C250.651 152.626 249.65 152.294 248.621 152.296C247.593 152.297 246.593 152.632 245.77 153.25C244.948 153.867 244.347 154.734 244.059 155.722L207.918 279.273C184.394 283.375 161.637 291.057 140.44 302.05L196.904 117.458C199.483 109.023 200.774 104.806 203.296 101.681C205.522 98.9223 208.418 96.7797 211.707 95.4574C215.433 93.96 219.843 93.96 228.664 93.96H268.993C277.825 93.96 282.241 93.96 285.97 95.4608C289.263 96.7856 292.16 98.9325 294.386 101.696Z" fill="white"/>
<path fill-rule="evenodd" clip-rule="evenodd" d="M301.109 310.863C291.847 318.783 273.359 324.185 252.063 324.185C225.925 324.185 204.018 316.048 198.204 305.104C196.126 311.376 195.66 318.554 195.66 323.14C195.66 323.14 194.291 345.656 209.952 361.317C209.952 353.185 216.544 346.593 224.675 346.593C238.613 346.593 238.598 358.753 238.585 368.618L238.584 369.499C238.584 384.473 247.736 397.31 260.752 402.72C258.808 398.722 257.717 394.232 257.717 389.487C257.717 375.205 266.102 369.888 275.846 363.708C283.599 358.79 292.214 353.327 298.151 342.368C301.249 336.649 303.007 330.1 303.007 323.14C303.007 318.859 302.342 314.734 301.109 310.863Z" fill="#D94DD1" stroke="#D94DD1" stroke-width="4.98" stroke-linecap="round" stroke-linejoin="round"/>
</svg>
