<svg width="500" height="500" viewBox="0 0 500 500" fill="none" xmlns="http://www.w3.org/2000/svg">
<rect width="500" height="500" rx="125" fill="#42EBB3"/>
<g clip-path="url(#clip0_2685_4)">
<path d="M188.526 79L152.57 129.642V158.268L121.282 173.15L121 173.018V359.778L242.987 417.409L250.441 420.927L257.896 417.409L379.882 359.778V173.018L379.652 173.126L348.356 158.239V129.642L347.261 128.102L312.398 79L276.441 129.642V129.692L250.277 92.843L224.317 129.409L223.388 128.102L188.526 79ZM194.887 108.417L208.794 128.002H168.258L182.003 108.647L194.887 108.417ZM318.757 108.417L332.667 128.002H292.13L305.872 108.647L318.757 108.417ZM256.638 122.262L270.545 141.846H230.012L243.754 122.49L256.638 122.262ZM164.414 137.873H183.639V202.61L164.414 193.527V137.873ZM193.51 137.873H212.64V216.308L193.51 207.272V137.873ZM288.288 137.873H307.512V207.205L288.288 216.287V137.873ZM317.381 137.873H336.509V193.505L317.381 202.541V137.873ZM226.166 151.716H245.392V231.781L226.166 222.697V151.716ZM255.263 151.716H274.39V222.853L255.263 231.891V151.716ZM348.352 172.992L365.279 179.913L348.352 187.909V172.992ZM152.57 173.018V187.933L135.647 179.937L152.57 173.018ZM135.908 196.549L242.987 247.134V400.918L135.907 350.334L135.908 196.549ZM364.973 196.549V350.334L257.896 400.918V247.133L364.973 196.549Z" fill="#15122D"/>
</g>
<defs>
<clipPath id="clip0_2685_4">
<rect width="259" height="342" fill="white" transform="translate(121 79)"/>
</clipPath>
</defs>
</svg>
