<svg width="500" height="500" viewBox="0 0 500 500" fill="none" xmlns="http://www.w3.org/2000/svg">
<rect width="500" height="500" rx="125" fill="#0054A6"/>
<path d="M267.346 149.537L290.58 111L398.54 219.069L359.941 242.21L267.346 149.537Z" fill="white"/>
<path d="M144.07 197.972L265.103 183.892L325.666 240.583L310.58 353.454L162.146 386.895C150.697 389.411 138.722 387.596 128.534 381.799L209.775 305.948C223.87 312.252 240.8 308.148 249.846 296.252C258.876 284.325 257.405 268.092 246.345 257.776C235.286 247.461 217.845 246.082 205.082 254.524C192.319 262.934 187.92 278.718 194.689 291.884L113.463 367.626C110.463 363.07 108.447 357.939 107.542 352.559C106.638 347.18 106.866 341.671 108.212 336.385L144.07 197.972Z" fill="white"/>
</svg>
