<svg width="500" height="500" viewBox="0 0 500 500" fill="none" xmlns="http://www.w3.org/2000/svg">
<rect width="500" height="500" rx="125" fill="#38BDF9"/>
<g clip-path="url(#clip0_2685_212)">
<path d="M250 152.547C206.8 152.547 179.8 174.147 169 217.347C185.2 195.746 204.1 187.646 225.7 193.047C238.023 196.127 246.832 205.069 256.583 214.965C272.466 231.088 290.848 249.747 331 249.747C374.2 249.747 401.2 228.146 412 184.947C395.8 206.547 376.9 214.647 355.3 209.247C342.977 206.166 334.168 197.225 324.417 187.329C308.534 171.206 290.152 152.547 250 152.547ZM169 249.747C125.8 249.747 98.7996 271.347 88 314.547C104.2 292.946 123.1 284.846 144.7 290.247C157.023 293.327 165.832 302.269 175.583 312.165C191.466 328.288 209.848 346.947 250 346.947C293.2 346.947 320.2 325.346 331 282.147C314.8 303.747 295.9 311.847 274.3 306.447C261.977 303.366 253.168 294.425 243.417 284.529C227.534 268.406 209.152 249.747 169 249.747Z" fill="#FAFAFA"/>
</g>
<defs>
<clipPath id="clip0_2685_212">
<rect width="324" height="324" fill="white" transform="translate(88 88)"/>
</clipPath>
</defs>
</svg>
